<?xml version="1.0" encoding="UTF-8" standalone="no"?>
<svg
   xmlns:dc="http://purl.org/dc/elements/1.1/"
   xmlns:cc="http://creativecommons.org/ns#"
   xmlns:rdf="http://www.w3.org/1999/02/22-rdf-syntax-ns#"
   xmlns:svg="http://www.w3.org/2000/svg"
   xmlns="http://www.w3.org/2000/svg"
   xmlns:sodipodi="http://sodipodi.sourceforge.net/DTD/sodipodi-0.dtd"
   xmlns:inkscape="http://www.inkscape.org/namespaces/inkscape"
   version="1.1"
   id="svg2"
   xml:space="preserve"
   width="4666.6665"
   height="2666.6667"
   viewBox="0 0 4666.6665 2666.6667"
   sodipodi:docname="4565.svg"
   inkscape:version="1.0.2 (394de47547, 2021-03-26)"><metadata
     id="metadata8"><rdf:RDF><cc:Work
         rdf:about=""><dc:format>image/svg+xml</dc:format><dc:type
           rdf:resource="http://purl.org/dc/dcmitype/StillImage" /><dc:title></dc:title></cc:Work></rdf:RDF></metadata><defs
     id="defs6" /><sodipodi:namedview
     pagecolor="#ffffff"
     bordercolor="#666666"
     borderopacity="1"
     objecttolerance="10"
     gridtolerance="10"
     guidetolerance="10"
     inkscape:pageopacity="0"
     inkscape:pageshadow="2"
     inkscape:window-width="1366"
     inkscape:window-height="713"
     id="namedview4"
     showgrid="false"
     inkscape:zoom="0.18824999"
     inkscape:cx="2693.3138"
     inkscape:cy="1518.5023"
     inkscape:window-x="0"
     inkscape:window-y="27"
     inkscape:window-maximized="1"
     inkscape:current-layer="g10" /><g
     id="g10"
     inkscape:groupmode="layer"
     inkscape:label="ink_ext_XXXXXX"
     transform="matrix(1.3333333,0,0,-1.3333333,0,2666.6667)"><g
       id="g1522"><g
         id="g18"
         transform="scale(0.197429)"><path
           d="m 3394.76,8687.7 c 2104.42,781.25 4243.26,90.55 5693.85,-1413.8 725.53,-752.41 1849.69,-492.44 2994.29,-232.48 1144,259.81 2308.2,519.63 3115.2,-231.1 C 16300,5785.34 15795.3,3150.09 14284.4,2008.72 12230.9,457.278 5985.68,1244.5 4634.76,1508.49 3078.37,1812.7 1940.53,2735.56 1478.22,3855.66 364.305,6554.54 2464.77,8342.45 3394.76,8687.7"
           style="fill:#e7f3fe;fill-opacity:1;fill-rule:nonzero;stroke:none"
           id="path20" /></g><g
         id="g22"
         transform="scale(0.128374)"><path
           d="m 13643.1,10948.1 c -575.5,0 -1042.1,466.5 -1042.1,1042.1 0,575.5 466.6,1042 1042.1,1042 575.6,0 1042.1,-466.5 1042.1,-1042 0,-575.6 -466.5,-1042.1 -1042.1,-1042.1 m 2640.1,743.8 c 11,97.9 16.8,197.4 16.8,298.3 0,53.2 -1.8,106 -4.9,158.4 l -492.9,159.5 c -30.3,207.8 -89.9,406.1 -174.5,590.6 l 326.8,402.2 c -75.5,133 -162.2,258.9 -258.8,376.3 l -493,-160.8 c -143.8,146.8 -307.9,273.4 -488.1,375.1 l 28.1,517.9 c -137.6,62.7 -281.4,113.9 -430.3,152.6 l -304.5,-420.1 c -118.6,20 -240.4,30.5 -364.8,30.5 -84.7,0 -168.3,-5 -250.6,-14.4 l -281.8,435.6 c -151,-30.7 -297.3,-74.2 -437.8,-129.4 l 0.6,-518.7 c -185.6,-92.2 -356.2,-210 -507.2,-348.9 l -483.6,186.7 c -102.8,-112.3 -196.1,-233.4 -278.6,-362.2 l 305.2,-419 c -94.4,-180.1 -164.5,-375 -205.7,-580.4 l -500.6,-133.2 c -10.9,-98 -16.8,-197.5 -16.8,-298.3 0,-53.3 1.8,-106.1 4.8,-158.5 l 493,-159.5 c 30.4,-207.8 90,-406.1 174.5,-590.6 l -326.8,-402.2 c 75.6,-133 162.2,-258.9 258.8,-376.3 l 493.1,160.8 c 143.7,-146.8 307.8,-273.3 488,-375.1 l -28.1,-517.92 c 137.6,-62.63 281.4,-113.88 430.3,-152.52 l 304.5,420.08 c 118.6,-19.98 240.4,-30.52 364.8,-30.52 84.8,0 168.3,4.99 250.6,14.39 l 281.8,-435.62 c 151,30.71 297.3,74.24 437.9,129.39 l -0.7,518.72 c 185.6,92.2 356.3,210 507.2,348.9 l 483.6,-186.6 c 102.8,112.3 196.1,233.4 278.6,362.1 l -305.2,419 c 94.4,180.1 164.5,375 205.7,580.5 l 500.6,133.2"
           style="fill:#9ec8ff;fill-opacity:1;fill-rule:nonzero;stroke:none"
           id="path24" /></g><g
         id="g26"
         transform="scale(0.122219)"><path
           d="m 15823,11345.6 c -9.3,0 -18.5,3.1 -26.1,9.5 -17.4,14.4 -19.8,40.2 -5.3,57.6 275,330.8 426.6,750.3 426.6,1181.2 0,206.4 -33.8,409.1 -100.3,602.4 -7.4,21.3 3.9,44.6 25.2,52 21.5,7.3 44.7,-4 52.1,-25.4 69.5,-201.9 104.8,-413.5 104.8,-629 0,-450 -158.2,-888.1 -445.5,-1233.5 -8.1,-9.8 -19.7,-14.8 -31.5,-14.8"
           style="fill:#ffffff;fill-opacity:1;fill-rule:nonzero;stroke:none"
           id="path28" /></g><g
         id="g30"
         transform="scale(0.117794)"><path
           d="m 16253,14452.3 c -10.5,0 -20.9,3.8 -29.1,11.5 -191.8,180.6 -414,317.5 -660.4,406.9 -21.9,8 -33.3,32.3 -25.3,54.4 7.9,22 32.3,33.4 54.4,25.4 257.2,-93.4 489.2,-236.3 689.5,-424.9 17,-16 17.9,-42.9 1.9,-60 -8.5,-8.8 -19.7,-13.3 -31,-13.3"
           style="fill:#ffffff;fill-opacity:1;fill-rule:nonzero;stroke:none"
           id="path32" /></g><g
         id="g34"
         transform="scale(0.108905)"><path
           d="m 15605.6,16143.8 c -20.6,0 -39.3,13.9 -44.6,34.7 -6.1,24.6 8.7,49.5 33.4,55.7 172.9,43.7 351.8,65.8 531.8,65.8 25.3,0 45.9,-20.6 45.9,-45.9 0,-25.4 -20.6,-45.9 -45.9,-45.9 -172.5,0 -343.8,-21.2 -509.4,-63 -3.8,-1 -7.6,-1.4 -11.2,-1.4"
           style="fill:#ffffff;fill-opacity:1;fill-rule:nonzero;stroke:none"
           id="path36" /></g><path
         d="m 780.393,587.75 c -51.174,0 -92.659,41.49 -92.659,92.66 0,51.18 41.485,92.66 92.659,92.66 51.174,0 92.659,-41.48 92.659,-92.66 0,-51.17 -41.485,-92.66 -92.659,-92.66 m 234.747,66.14 c 0.98,8.71 1.49,17.55 1.49,26.52 0,4.73 -0.15,9.43 -0.43,14.09 l -43.825,14.18 c -2.698,18.48 -7.997,36.11 -15.519,52.52 l 29.062,35.76 c -6.722,11.83 -14.429,23.02 -23.021,33.46 l -43.834,-14.3 c -12.776,13.05 -27.376,24.31 -43.393,33.35 l 2.493,46.06 c -12.232,5.57 -25.022,10.12 -38.264,13.56 l -27.067,-37.35 c -10.55,1.77 -21.384,2.71 -32.439,2.71 -7.536,0 -14.968,-0.44 -22.28,-1.28 l -25.059,38.74 c -13.426,-2.74 -26.439,-6.61 -38.932,-11.51 l 0.057,-46.12 c -16.503,-8.2 -31.674,-18.68 -45.099,-31.02 l -43.003,16.59 c -9.138,-9.99 -17.434,-20.75 -24.765,-32.2 L 608.45,770.4 c -8.399,-16.02 -14.632,-33.35 -18.295,-51.62 l -44.511,-11.84 c -0.974,-8.71 -1.492,-17.56 -1.492,-26.53 0,-4.73 0.156,-9.43 0.431,-14.09 l 43.828,-14.18 c 2.697,-18.48 7.996,-36.11 15.519,-52.51 l -29.062,-35.76 c 6.722,-11.83 14.429,-23.03 23.021,-33.47 l 43.834,14.31 c 12.776,-13.06 27.376,-24.31 43.392,-33.36 l -2.492,-46.05 c 12.232,-5.57 25.022,-10.13 38.264,-13.56 l 27.067,37.35 c 10.55,-1.78 21.384,-2.72 32.439,-2.72 7.536,0 14.967,0.45 22.28,1.28 l 25.059,-38.73 c 13.426,2.73 26.439,6.6 38.932,11.5 l -0.057,46.13 c 16.503,8.2 31.674,18.67 45.099,31.02 l 43.002,-16.59 c 9.139,9.98 17.434,20.75 24.766,32.19 l -27.139,37.26 c 8.401,16.02 14.633,33.35 18.296,51.61 l 44.509,11.85"
         style="fill:#9ec8ff;fill-opacity:1;fill-rule:nonzero;stroke:none;stroke-width:0.1"
         id="path38" /><path
         d="m 906.769,573.2 c -1.127,0 -2.26,0.38 -3.195,1.15 -2.123,1.77 -2.413,4.92 -0.647,7.05 23.058,27.72 35.758,62.89 35.758,99.01 0,17.3 -2.83,34.29 -8.41,50.49 -0.899,2.61 0.489,5.46 3.1,6.35 2.609,0.9 5.456,-0.48 6.355,-3.09 5.942,-17.26 8.955,-35.34 8.955,-53.75 0,-38.45 -13.52,-75.89 -38.069,-105.41 -0.989,-1.19 -2.413,-1.8 -3.847,-1.8"
         style="fill:#ffffff;fill-opacity:1;fill-rule:nonzero;stroke:none;stroke-width:0.1"
         id="path40" /><path
         d="m 893.354,791.89 c -1.229,0 -2.46,0.45 -3.426,1.36 -15.496,14.59 -33.445,25.65 -53.346,32.87 -2.596,0.95 -3.936,3.81 -2.995,6.41 0.941,2.6 3.812,3.94 6.405,2.99 21.191,-7.68 40.297,-19.46 56.791,-34.98 2.011,-1.9 2.106,-5.06 0.213,-7.07 -0.984,-1.05 -2.311,-1.58 -3.642,-1.58"
         style="fill:#ffffff;fill-opacity:1;fill-rule:nonzero;stroke:none;stroke-width:0.1"
         id="path42" /><path
         d="m 744.451,830.51 c -2.235,0 -4.271,1.51 -4.844,3.78 -0.675,2.68 0.947,5.4 3.624,6.07 13.165,3.32 26.79,5.01 40.496,5.01 2.761,0 5,-2.24 5,-5 0,-2.76 -2.239,-5 -5,-5 -12.881,0 -25.683,-1.58 -38.048,-4.7 -0.41,-0.11 -0.823,-0.16 -1.228,-0.16"
         style="fill:#ffffff;fill-opacity:1;fill-rule:nonzero;stroke:none;stroke-width:0.1"
         id="path44" /><g
         id="g46"
         transform="scale(0.142774)"><path
           d="m 15077.8,8295.17 c -228.6,0 -414,185.34 -414,413.98 0,228.64 185.4,413.99 414,413.99 228.7,0 414,-185.35 414,-413.99 0,-228.64 -185.3,-413.98 -414,-413.98 z m 993.7,433.05 c 0,18.11 -0.5,36.09 -1.5,53.95 l 230,184.67 c -18.1,92.17 -46.3,180.66 -83.6,264.23 l -296.9,22.45 c -67.6,106.56 -155,199.22 -257.2,272.78 l -0.9,295.94 c -82.8,43.39 -170.9,77.74 -263.3,101.59 l -203,-218.44 c -35,3.77 -70.5,5.77 -106.5,5.77 -89.5,0 -176.1,-12.02 -258.5,-34.41 l -232.7,184.34 c -87.9,-38.16 -170.4,-86.18 -246.2,-142.77 l 44,-293.39 c -86.7,-86.36 -157.4,-188.84 -207.3,-302.55 l -289.5,-67.11 c -24.5,-89.4 -39.2,-182.84 -42.8,-279.11 l 255,-147.45 c 13,-129.15 51.1,-250.88 109.1,-360.37 L 14092,8000.92 c 54.8,-74.89 117.8,-143.41 187.7,-204.16 l 273.4,107.11 c 107.5,-69.97 229.5,-119.52 360.6,-143.06 l 128.9,-265.38 c 15.3,-0.57 30.7,-0.95 46.3,-0.95 77.1,0 152.7,7.17 226,20.74 l 87,281.07 c 126.5,42.55 241.6,110.2 339.2,196.99 l 287.5,-64.59 c 59,69.21 110.4,145 153.1,226.14 l -166.6,244.68 c 36.5,102.79 56.4,213.42 56.4,328.71"
           style="fill:#9ec8ff;fill-opacity:1;fill-rule:nonzero;stroke:none"
           id="path48" /></g><g
         id="g50"
         transform="scale(0.176475)"><path
           d="m 16098.4,8990.95 h -287.9 c -111.2,0 -201.6,90.43 -201.6,201.59 v 287.85 c 0,111.16 90.4,201.6 201.6,201.6 h 287.9 c 111.2,0 201.6,-90.44 201.6,-201.6 v -287.85 c 0,-111.16 -90.4,-201.59 -201.6,-201.59 m -287.9,611.71 c -67.4,0 -122.3,-54.85 -122.3,-122.27 v -287.85 c 0,-67.42 54.9,-122.26 122.3,-122.26 h 287.9 c 67.4,0 122.3,54.84 122.3,122.26 v 287.85 c 0,67.42 -54.9,122.27 -122.3,122.27 h -287.9"
           style="fill:#b1d3ff;fill-opacity:1;fill-rule:nonzero;stroke:none"
           id="path52" /></g><g
         id="g54"
         transform="scale(0.16181)"><path
           d="m 16080.2,9805.8 h -314 c -121.2,0 -219.9,98.63 -219.9,219.9 v 313.9 c 0,121.2 98.7,219.9 219.9,219.9 h 314 c 121.2,0 219.8,-98.7 219.8,-219.9 v -313.9 c 0,-121.27 -98.6,-219.9 -219.8,-219.9 m -314,667.2 c -73.5,0 -133.3,-59.9 -133.3,-133.4 v -313.9 c 0,-73.56 59.8,-133.37 133.3,-133.37 h 314 c 73.5,0 133.3,59.81 133.3,133.37 v 313.9 c 0,73.5 -59.8,133.4 -133.3,133.4 h -314"
           style="fill:#b1d3ff;fill-opacity:1;fill-rule:nonzero;stroke:none"
           id="path56" /></g><g
         id="g58"
         transform="scale(0.164126)"><path
           d="m 15717.8,9847.63 c -0.6,0 -1.1,0.02 -1.7,0.04 -10.8,0.53 -20.8,5.75 -27.3,14.28 l -222.4,290.15 c -12.3,16.1 -9.3,39 6.7,51.3 16.1,12.3 39,9.2 51.3,-6.8 l 196.2,-255.89 512.2,548.79 c 13.8,14.8 36.9,15.5 51.7,1.8 14.7,-13.8 15.5,-36.9 1.7,-51.7 l -541.6,-580.35 c -7,-7.43 -16.7,-11.62 -26.8,-11.62"
           style="fill:#f37168;fill-opacity:1;fill-rule:nonzero;stroke:none"
           id="path60" /></g><path
         d="m 1417.62,1516.72 -6.66,2.16 c -0.39,6.73 -0.62,13.51 -0.62,20.34 0,6.9 0.22,13.74 0.63,20.54 h 6.65 v -43.04"
         style="fill:#9dc5fb;fill-opacity:1;fill-rule:nonzero;stroke:none;stroke-width:0.1"
         id="path184" /><path
         d="m 1282.74,1186.18 h -253.48 c -8.91,0 -16.2,7.29 -16.2,16.21 0,8.91 7.29,16.2 16.2,16.2 h 253.48 c 8.92,0 16.21,-7.29 16.21,-16.2 0,-8.92 -7.29,-16.21 -16.21,-16.21"
         style="fill:#99bbeb;fill-opacity:1;fill-rule:nonzero;stroke:none;stroke-width:0.1"
         id="path240" /><path
         d="m 1251.2,1136.39 h -190.39 c -8.92,0 -16.21,7.3 -16.21,16.21 0,8.91 7.29,16.2 16.21,16.2 h 190.39 c 8.91,0 16.2,-7.29 16.2,-16.2 0,-8.91 -7.29,-16.21 -16.2,-16.21"
         style="fill:#99bbeb;fill-opacity:1;fill-rule:nonzero;stroke:none;stroke-width:0.1"
         id="path242" /><g
         id="g368"
         transform="scale(0.191425)"><path
           d="m 15819,3534.39 c 162.7,-148.56 91.9,-297.08 -28.3,-573.01 -120.3,-275.88 -141.5,-1294.51 -141.5,-1294.51 l 99,14.16 c 0,0 -14.1,1046.94 120.3,1329.87 134.4,282.98 191,424.45 311.2,332.51 120.3,-92 -360.7,190.98 -360.7,190.98"
           style="fill:#74b570;fill-opacity:1;fill-rule:nonzero;stroke:none"
           id="path370" /></g><g
         id="g372"
         transform="scale(0.201223)"><path
           d="m 14963.7,3545.28 c 18.8,83.74 130.4,174.38 279.7,251.21 -22.3,-123.5 -93.4,-325.46 -19.8,-366.91 99.4,-55.86 9.7,226.12 48,381.12 140.2,68.43 308.8,124.39 464.1,152.22 -0.2,-0.59 -0.4,-1.09 -0.6,-1.69 -87.5,-222.09 -201.9,-309.55 -154.8,-343.2 35.4,-25.34 150.9,231.19 303.3,362.68 114.4,6.12 211.2,-9.39 268.5,-54.71 88.5,-70.07 147.9,-132.24 58.9,-345.59 -50.8,-36.38 -116.7,-62.42 -193.3,-70.07 -201.8,-20.18 -296.1,-26.94 -154.7,-94.22 69.1,-32.95 185.1,1.88 279.2,23.06 -30.5,-56.21 -68,-119.82 -113.6,-192.33 -28.9,-45.92 -60.7,-85.87 -94.6,-120.36 -65,-12.48 -121.8,-12.63 -151.8,0.24 -94.2,40.41 -336.5,168.28 -397.1,114.45 -59.2,-52.72 448.7,-86.07 413.5,-220 -246.2,-141.83 -527.9,-74.35 -577.7,55.91 -66.9,174.93 -313.8,216.08 -257.2,468.19"
           style="fill:#9cd499;fill-opacity:1;fill-rule:nonzero;stroke:none"
           id="path374" /></g><g
         id="g376"
         transform="scale(0.191009)"><path
           d="m 16300,2726.78 c -283.6,212.71 -574.3,14.19 -723.1,-212.66 -148.9,-226.85 -42.6,-737.29 -42.6,-737.29 0,0 56.7,0 56.7,21.25 0,21.26 -155.9,602.59 212.7,864.93 230.7,164.08 397,85.08 418.3,7.07 21.2,-77.95 -92.1,-219.78 -92.1,-219.78 l 170.1,276.48"
           style="fill:#74b570;fill-opacity:1;fill-rule:nonzero;stroke:none"
           id="path378" /></g><g
         id="g380"
         transform="scale(0.187769)"><path
           d="m 15917.8,3218.58 c 288.4,0 382.2,-447.15 302.8,-706.77 -79.3,-259.58 -187.5,-742.78 -187.5,-742.78 l -72.1,72.11 c 0,0 274.1,677.91 209.2,980.78 -65,302.92 -223.6,353.41 -252.4,353.41 -28.9,0 0,43.25 0,43.25"
           style="fill:#9cd499;fill-opacity:1;fill-rule:nonzero;stroke:none"
           id="path382" /></g><g
         id="g384"
         transform="scale(0.187028)"><path
           d="m 16223.8,2519.79 c 20.4,26.95 45.5,49.24 76.2,64.05 -4,-21.6 -9,-42.34 -15,-62.07 -36.3,-118.76 -78.6,-284.08 -113.9,-428.92 -3.2,18.55 -8.1,47.16 -15.8,91.21 -1.8,10.43 -3.2,21.76 -4.2,33.74 28.4,96.46 55.2,201.52 72.7,301.99"
           style="fill:#74b570;fill-opacity:1;fill-rule:nonzero;stroke:none"
           id="path386" /></g><g
         id="g388"
         transform="scale(0.200041)"><path
           d="m 15242.5,2353.82 c 514.4,216.61 243.4,513.9 696.9,317.59 32,-13.85 70.9,-48.74 109.8,-96.78 -40.3,-11.45 -89.2,-19.7 -143.6,-11.55 -135.4,20.3 -88.1,-87.98 135.4,-115.08 42,-5.09 76.2,-12.14 104.6,-22.09 106.5,-204.41 154.4,-473.36 -70.8,-566.84 -44.4,-18.44 -99.2,-28.94 -160.3,-32.89 -69.5,55.24 17,374.87 -90.2,330.73 -102.8,-42.34 32.2,-273.99 13.7,-332.33 -101.5,1.85 -213.9,18.4 -321.3,45.04 -42.5,23.8 -75,55.74 -85,97.78 -33.8,142.12 189.5,230.15 196.3,351.98 6.2,112.03 -81.8,-246.45 -315.3,-299.19 -211,98.58 -310.7,232.35 -70.2,333.63"
           style="fill:#9cd499;fill-opacity:1;fill-rule:nonzero;stroke:none"
           id="path390" /></g><g
         id="g392"
         transform="scale(0.186689)"><path
           d="m 15939.8,2932.58 c 58,123.31 -94.4,152.28 -87.1,58.01 6.5,-83.56 7.2,-286.68 -78.5,-341.96 -147.8,16.02 -348.9,75.58 -500.9,166.32 -1.9,12.27 -0.1,24.91 6.4,37.82 65.3,130.59 486,239.38 355.4,282.87 -104,34.66 -286.2,-169.91 -433,-272.96 -88.2,66.9 -147.3,146.66 -147.3,235.68 0,120.52 146.5,256.9 335.8,322.14 85.2,-8.62 164.4,-55.22 288,-125.29 182.7,-103.48 140.4,63.85 -32.3,163.16 149.1,-7.71 297.8,-71.4 407.4,-223.58 0,0 -10.4,-65.02 58.4,-165.67 187.9,-274.47 -28.9,-434.74 -288,-424.29 14.7,72.31 75.6,202.53 115.7,287.75"
           style="fill:#9cd499;fill-opacity:1;fill-rule:nonzero;stroke:none"
           id="path394" /></g><g
         id="g396"
         transform="scale(0.198669)"><path
           d="m 15655.1,2633.22 c 133.3,-102.99 281.4,-223.44 463.1,-305.23 181.8,-81.8 145.5,-348.37 145.5,-348.37 0,0 27.2,230.23 -124.3,309.01 -151.4,78.77 -251.4,172.65 -366.5,190.87 -115.2,18.17 -178.7,36.34 -178.7,36.34 0,0 36.3,72.68 15.1,99.96 -21.2,27.29 45.8,17.42 45.8,17.42"
           style="fill:#74b570;fill-opacity:1;fill-rule:nonzero;stroke:none"
           id="path398" /></g><g
         id="g400"
         transform="scale(0.198817)"><path
           d="m 16300,3839.91 c -487.4,-130.17 -844.6,-442.01 -911.2,-517.66 -66.6,-75.7 -66.6,-96.87 -66.6,-96.87 l 51.5,-96.88 24.2,12.07 c 0,0 -39.4,81.79 63.5,187.71 177.5,182.73 393.6,326.94 541.9,390.51 148.4,63.58 296.7,121.12 296.7,121.12"
           style="fill:#74b570;fill-opacity:1;fill-rule:nonzero;stroke:none"
           id="path402" /></g><g
         id="g404"
         transform="scale(0.187603)"><path
           d="m 15848.6,1210.37 h 197.3 c 140.4,0 254.1,113.76 254.1,254.11 v 453.4 h -705.5 v -453.4 c 0,-140.35 113.8,-254.11 254.1,-254.11"
           style="fill:#75a1de;fill-opacity:1;fill-rule:nonzero;stroke:none"
           id="path406" /></g><g
         id="g408"
         transform="scale(0.187603)"><path
           d="m 16300,1787.12 h -705.5 v 49.68 h 705.5 v -49.68"
           style="fill:#ffffff;fill-opacity:1;fill-rule:nonzero;stroke:none"
           id="path410" /></g><g
         id="g412"
         transform="scale(0.187603)"><path
           d="m 16300,1717.03 h -705.5 v 29.21 h 705.5 v -29.21"
           style="fill:#ffffff;fill-opacity:1;fill-rule:nonzero;stroke:none"
           id="path414" /></g><g
         id="g422"
         transform="scale(0.198768)"><path
           d="m 16300,6427.5 v 158.89 c 0,33.54 -27.2,60.74 -60.7,60.74 h -130.9 c -33.5,0 -60.7,-27.2 -60.7,-60.74 V 6427.5 c 0,-33.55 27.2,-60.75 60.7,-60.75 h 130.9 c 33.5,0 60.7,27.2 60.7,60.75"
           style="fill:#9ec8ff;fill-opacity:1;fill-rule:nonzero;stroke:none"
           id="path424" /></g><g
         id="g426"
         transform="scale(0.198768)"><path
           d="m 16300,5917.71 v 158.89 c 0,33.54 -27.2,60.74 -60.7,60.74 h -130.9 c -33.5,0 -60.7,-27.2 -60.7,-60.74 v -158.89 c 0,-33.55 27.2,-60.75 60.7,-60.75 h 130.9 c 33.5,0 60.7,27.2 60.7,60.75"
           style="fill:#9ec8ff;fill-opacity:1;fill-rule:nonzero;stroke:none"
           id="path428" /></g><g
         id="g430"
         transform="scale(0.198768)"><path
           d="m 16300,5407.92 v 158.88 c 0,33.56 -27.2,60.75 -60.7,60.75 h -130.9 c -33.5,0 -60.7,-27.19 -60.7,-60.75 v -158.88 c 0,-33.56 27.2,-60.75 60.7,-60.75 h 130.9 c 33.5,0 60.7,27.19 60.7,60.75"
           style="fill:#9ec8ff;fill-opacity:1;fill-rule:nonzero;stroke:none"
           id="path432" /></g></g></g></svg>
